<svg xmlns="http://www.w3.org/2000/svg" width="25" height="24" viewBox="0 0 25 24" fill="none">
  <path d="M12.5 14C13.6046 14 14.5 13.1046 14.5 12C14.5 10.8954 13.6046 10 12.5 10C11.3954 10 10.5 10.8954 10.5 12C10.5 13.1046 11.3954 14 12.5 14Z" stroke="#6DE754" stroke-width="2" stroke-linecap="round" stroke-linejoin="round"/>
  <path d="M16.74 7.76005C17.2979 8.31729 17.7404 8.97902 18.0424 9.70741C18.3443 10.4358 18.4997 11.2166 18.4997 12.0051C18.4997 12.7935 18.3443 13.5743 18.0424 14.3027C17.7404 15.0311 17.2979 15.6928 16.74 16.2501M8.26 16.2401C7.70214 15.6828 7.25959 15.0211 6.95764 14.2927C6.6557 13.5643 6.50028 12.7835 6.50028 11.9951C6.50028 11.2066 6.6557 10.4258 6.95764 9.69741C7.25959 8.96902 7.70214 8.30729 8.26 7.75005M19.57 4.93005C21.4447 6.80533 22.4979 9.34841 22.4979 12.0001C22.4979 14.6517 21.4447 17.1948 19.57 19.0701M5.43 19.0701C3.55529 17.1948 2.50214 14.6517 2.50214 12.0001C2.50214 9.34841 3.55529 6.80533 5.43 4.93005" stroke="#6DE754" stroke-width="2" stroke-linecap="round" stroke-linejoin="round"/>
</svg>